<?xml version="1.0" encoding="UTF-8"?>
<svg id="Layer_1" xmlns="http://www.w3.org/2000/svg" viewBox="0 0 5442.52 5442.52">
  <defs>
    <style>
      .cls-1 {
        fill: #a8adbe;
      }
    </style>
  </defs>
  <path class="cls-1" d="M5231.72,5231.72H210.8V210.8h5020.92v5020.92ZM469.55,4972.97h4503.43V469.55H469.55v4503.43ZM5231.72,5231.72H210.8V210.8h5020.92v5020.92ZM469.55,4972.97h4503.43V469.55H469.55v4503.43ZM5231.72,5231.72H210.8V210.8h5020.92v5020.92ZM469.55,4972.97h4503.43V469.55H469.55v4503.43ZM5231.72,5231.72H210.8V210.8h5020.92v5020.92ZM469.55,4972.97h4503.43V469.55H469.55v4503.43ZM5231.72,5231.72H210.8V210.8h5020.92v5020.92ZM469.55,4972.97h4503.43V469.55H469.55v4503.43ZM5231.72,5231.72H210.8V210.8h5020.92v5020.92ZM469.55,4972.97h4503.43V469.55H469.55v4503.43ZM5231.72,5231.72H210.8V210.8h5020.92v5020.92ZM469.55,4972.97h4503.43V469.55H469.55v4503.43ZM5231.72,5231.72h-1619.37v-1619.37h1619.37v1619.37ZM3871.1,4972.97h1101.87v-1101.87h-1101.87v1101.87ZM5231.72,5231.72h-598.9v-598.9h598.9v598.9ZM4891.57,4972.97h81.4v-81.4h-81.4v81.4ZM5231.72,5231.72h-939.05v-939.05h939.05v939.05ZM4551.42,4972.97h421.55v-421.55h-421.55v421.55ZM5231.72,5231.72h-1279.22v-1279.22h1279.22v1279.22ZM4211.25,4972.97h761.72v-761.72h-761.72v761.72ZM5231.72,5231.72h-2639.84v-2639.84h2639.84v2639.84ZM2850.63,4972.97h2122.34v-2122.34h-2122.34v2122.34ZM5231.72,5231.72h-2299.69v-2299.69h2299.69v2299.69ZM3190.78,4972.97h1782.19v-1782.19h-1782.19v1782.19ZM5231.72,5231.72h-1959.52v-1959.52h1959.52v1959.52ZM3530.96,4972.97h1442.02v-1442.02h-1442.02v1442.02ZM1830.17,5231.72H210.8v-1619.37h1619.37v1619.37ZM469.55,4972.97h1101.87v-1101.87H469.55v1101.87ZM809.7,5231.72H210.8v-598.9h598.9v598.9ZM469.55,4972.97h81.4v-81.4h-81.4v81.4ZM1149.84,5231.72H210.8v-939.05h939.05v939.05ZM469.55,4972.97h421.55v-421.55h-421.55v421.55ZM1490.02,5231.72H210.8v-1279.22h1279.22v1279.22ZM469.55,4972.97h761.72v-761.72H469.55v761.72ZM2850.63,5231.72H210.8v-2639.84h2639.84v2639.84ZM469.55,4972.97h2122.34v-2122.34H469.55v2122.34ZM2510.49,5231.72H210.8v-2299.69h2299.69v2299.69ZM469.55,4972.97h1782.19v-1782.19H469.55v1782.19ZM0,0v5442.52h5442.52V0H0ZM5102.35,5102.35H340.17V340.17h4762.17v4762.17ZM2170.31,5231.72H210.8v-1959.52h1959.52v1959.52ZM469.55,4972.97h1442.02v-1442.02H469.55v1442.02ZM1830.17,1830.17H210.8V210.8h1619.37v1619.37ZM469.55,1571.42h1101.87V469.55H469.55v1101.87ZM809.7,809.7H210.8V210.8h598.9v598.9ZM469.55,550.95h81.4v-81.4h-81.4v81.4ZM1149.84,1149.84H210.8V210.8h939.05v939.05ZM469.55,891.09h421.55v-421.55h-421.55v421.55ZM1490.02,1490.02H210.8V210.8h1279.22v1279.22ZM469.55,1231.27h761.72V469.55H469.55v761.72ZM2850.63,2850.64H210.8V210.8h2639.84v2639.84ZM469.55,2591.89h2122.34V469.55H469.55v2122.34ZM2510.49,2510.49H210.8V210.8h2299.69v2299.69ZM469.55,2251.74h1782.19V469.55H469.55v1782.19ZM2170.31,2170.31H210.8V210.8h1959.52v1959.52ZM469.55,1911.56h1442.02V469.55H469.55v1442.02ZM5231.72,1830.17h-1619.37V210.8h1619.37v1619.37ZM3871.1,1571.42h1101.87V469.55h-1101.87v1101.87ZM5231.72,809.7h-598.9V210.8h598.9v598.9ZM4891.57,550.95h81.4v-81.4h-81.4v81.4ZM5231.72,1149.84h-939.05V210.8h939.05v939.05ZM4551.42,891.09h421.55v-421.55h-421.55v421.55ZM5231.72,1490.02h-1279.22V210.8h1279.22v1279.22ZM4211.25,1231.27h761.72V469.55h-761.72v761.72ZM5231.72,2850.64h-2639.84V210.8h2639.84v2639.84ZM2850.63,2591.89h2122.34V469.55h-2122.34v2122.34ZM5231.72,2510.49h-2299.69V210.8h2299.69v2299.69ZM3190.78,2251.74h1782.19V469.55h-1782.19v1782.19ZM5231.72,2170.31h-1959.52V210.8h1959.52v1959.52ZM3530.96,1911.56h1442.02V469.55h-1442.02v1442.02Z"/>
</svg>